<?xml version="1.0" encoding="utf-8"?>
<!-- Generator: Adobe Illustrator 20.1.0, SVG Export Plug-In . SVG Version: 6.00 Build 0)  -->
<svg version="1.1" id="Layer_1" xmlns="http://www.w3.org/2000/svg" xmlns:xlink="http://www.w3.org/1999/xlink" x="0px" y="0px"
	 viewBox="0 0 300 300" style="enable-background:new 0 0 300 300;" xml:space="preserve">
<style type="text/css">
	.st0{fill:#AC162C;}
	.st1{clip-path:url(#SVGID_3_);fill:#FFFFFF;}
	.st2{fill:#FFFFFF;}
</style>
<g>
	<path class="st0" d="M243.7,275.4h13.9v2.6h-5.4v14.5h-3V278h-5.4V275.4z"/>
	<path class="st0" d="M259.5,275.4h4.2l4.7,13.4h0l4.6-13.4h4.2v17.1h-2.9v-13.2h0l-4.8,13.2h-2.5l-4.8-13.2h0v13.2h-2.9V275.4z"/>
</g>
<g>
	<g>
		<g>
			<g>
				<circle id="SVGID_1_" class="st0" cx="150.4" cy="150.9" r="145.2"/>
			</g>
			<g>
				<defs>
					<circle id="SVGID_2_" cx="150.4" cy="150.9" r="145.2"/>
				</defs>
				<clipPath id="SVGID_3_">
					<use xlink:href="#SVGID_2_"  style="overflow:visible;"/>
				</clipPath>
				<path class="st1" d="M56.2,262c1-0.1,3.1,0.1,4.2,0c8.4-0.7,20.3-2.2,34.1-5c8.5-1.7,17.7-4,27.3-6.9
					c-31.1-11.8-56.4-27.4-76.3-43.1c-16.7-13.1-32-28.6-41.4-39.4l0.8-8.6c5.3,8.3,24.6,28.7,43.9,43.8
					c20.9,16.4,47.8,32.8,81.3,44.6c18.2-6.1,37.3-14.7,55.3-26.7l0,0c0,0,0-0.1,0.1-0.1l-9.7-8.1l0.9-0.6l14.6,3.1
					c8.9-7.5,23.6-17.1,23.6-17.1L209,189c0,0-17.8-11.6-21-13.3c-5.7-3.1-7.6-3.4-7.6-3.4c5-3.3,19.6,3.6,26.6,6.2
					c2.7,1,6.9,2.5,11.1,4.1l0.3-0.2l-0.4-0.7l7.2-4.7l2.9,4.4l-4.7,3.1c4.7,1.7,8.3,3,8.3,3s2.6-1.2,12.8-8.1
					c12.7-8.6,15.7-5.3,15.7-5.3s2.1,4.4-10.8,12.7c-10.3,6.6-12.5,8.6-12.5,8.6s-0.2,3.7-0.5,8.4l4.5-3l2.9,4.4l-7.2,4.7l-0.5-0.7
					c-0.2,4.7-0.5,9.4-0.7,12.4c-0.4,7.4,0.3,23.6-4.7,26.9c0,0,0.6-2-0.2-8.3c-0.6-4.9-4-24.5-4-24.5l-5.9-8.9
					c0,0-14.6,9.4-25,14.5l-3.2,15.4l-0.9,0.6l-3.2-11.9c-16.3,10.8-33.4,18.9-49.9,24.9c27.7,8.9,59.7,14.5,96.2,14.5
					c4.9,0,10-0.1,15.1-0.3l0.2,5.3c-5.2,0.2-10.3,0.3-15.3,0.3c-40,0-74.7-6.7-104.5-17c-27.3,9-52.1,12.6-67.3,14L56.2,262z"/>
			</g>
		</g>
		<g>
			<path class="st2" d="M41.8,109.9h4.3v36.9h19.2v3.8H41.8V109.9z"/>
			<path class="st2" d="M74.7,109.9h4.4v40.7h-4.4V109.9z"/>
			<path class="st2" d="M99.1,122.3c-1.1-1.4-2.8-3.8-2.8-3.8s0.4,2.9,0.4,4.6v27.5h-4.1v-41.2h0.7l24.3,28.7
				c1.1,1.4,2.8,3.8,2.8,3.8s-0.3-2.9-0.3-4.6v-27.5h4V151h-0.7L99.1,122.3z"/>
			<path class="st2" d="M132.6,142.8l3.6-1.9c1.9,3.4,4.7,6.4,10.5,6.4c4.7,0,8.4-2.6,8.4-7c0-4.1-2.6-6.2-7.7-8.5l-3.2-1.5
				c-5.8-2.6-9-5.5-9-11.1c0-5.9,4.6-9.8,10.7-9.8c5.5,0,8.9,2.5,11,6.1l-3.5,2.2c-1.6-2.5-3.7-4.4-7.5-4.4c-4,0-6.5,2.3-6.5,5.8
				c0,3.6,1.9,5.2,6.5,7.3l3.2,1.5c6.8,3,10.2,6.3,10.2,12.5c0,6.7-5.3,10.8-12.6,10.8C139,151.1,134.7,147.1,132.6,142.8z"/>
			<path class="st2" d="M176.4,113.7h-12.5v-3.8h29.3v3.8h-12.5v36.9h-4.3V113.7z"/>
			<path class="st2" d="M194.7,130.3c0-12.3,9.3-20.8,20.9-20.8c11.6,0,21,8.6,21,20.8c0,12.3-9.3,20.8-21,20.8
				C204.1,151.1,194.7,142.5,194.7,130.3z M232.1,130.3c0-9.7-6.9-17-16.5-17c-9.5,0-16.4,7.2-16.4,17c0,9.7,6.9,17,16.4,17
				C225.2,147.2,232.1,140,232.1,130.3z"/>
			<path class="st2" d="M244.5,109.9h4.3v36.9H268v3.8h-23.5V109.9z"/>
		</g>
	</g>
</g>
</svg>
